<svg xmlns="http://www.w3.org/2000/svg" width="256" height="256"><path fill="#1976D2" fill-opacity=".275" fill-rule="evenodd" d="M0 128.004v128.004l128.25-.254 128.25-.254.254-127.75L257.008 0H0v128.004m.485.496c0 70.4.119 99.053.265 63.672.146-35.38.146-92.98 0-128C.604 29.153.485 58.1.485 128.5"/><path fill="#1976D2" fill-opacity=".264" fill-rule="evenodd" d="M0 128.004v128.004l128.25-.254 128.25-.254.254-127.75L257.008 0H0v128.004m.485.496c0 70.4.119 99.053.265 63.672.146-35.38.146-92.98 0-128C.604 29.153.485 58.1.485 128.5m154.14-87.031c-2.132.76-5.303 2.765-7.048 4.456-2.591 2.512-4 3.075-7.693 3.075-16.512 0-28.852 12.202-28.874 28.554-.013 9.391 2.727 14.762 12.458 24.42l7.53 7.474-6.23 6.286-6.231 6.287 7.72 7.72 7.72 7.72 5.79-5.731c3.185-3.151 6.196-5.73 6.69-5.73.495 0 4.372 3.379 8.617 7.51 9.406 9.154 14.849 11.849 23.995 11.88 15.136.051 26.477-10.737 27.713-26.361.434-5.486 1.026-7.127 3.707-10.271 8.22-9.644 7.36-22.487-2.198-32.81-2.91-3.143-5.291-6.126-5.291-6.629 0-.502 1.796-2.667 3.991-4.81 5.953-5.813 6.331-12.337 1.001-17.302-4.866-4.533-10.987-3.537-17.532 2.853l-4.04 3.944-4.46-4.619c-8.098-8.388-17.982-11.25-27.335-7.916m4.892 31.923c-4.182 4.182-3.363 6.147 6.791 16.3 10.339 10.34 12.92 11.376 16.619 6.673 1.14-1.449 2.073-3.316 2.073-4.15 0-2.018-17.889-19.873-20.733-20.695-1.617-.466-2.929.051-4.75 1.872m-94.055 39.912C55.66 117.988 49 128.712 49 139.81c0 3.662-.607 5.119-3.433 8.248-8.569 9.485-7.008 23.45 3.786 33.871l4.587 4.428-4.354 4.655c-5.169 5.526-6.291 9.366-4.198 14.374 3.257 7.795 12.332 8.557 19.121 1.605 2.143-2.195 4.308-3.991 4.81-3.991.503 0 3.486 2.381 6.629 5.291 10.4 9.629 23.184 10.424 32.969 2.048 3.384-2.897 4.62-3.339 9.332-3.339 4.057 0 6.98-.774 11.551-3.058 10.335-5.165 15.568-13.548 15.568-24.942 0-11.272-1.654-13.666-27.171-39.324-12.483-12.553-24.681-24-27.105-25.438-3.55-2.104-5.983-2.684-12.5-2.977-6.949-.313-8.803-.024-13.13 2.043m2.593 51.353c-1.33 1.691-1.872 3.418-1.49 4.75.954 3.328 18.8 20.593 21.285 20.593 2.972 0 6.15-3.458 6.15-6.692 0-2.064-2.174-4.866-9.308-12-10.352-10.353-12.918-11.379-16.637-6.651"/><path fill="#1976D2" fill-opacity=".375" fill-rule="evenodd" d="M0 128.004v128.004l128.25-.254 128.25-.254.254-127.75L257.008 0H0v128.004m.485.496c0 70.4.119 99.053.265 63.672.146-35.38.146-92.98 0-128C.604 29.153.485 58.1.485 128.5m152.937-87.082c-1.692.738-4.677 2.745-6.632 4.461-2.913 2.558-4.411 3.121-8.306 3.121-10.723 0-19.999 5.744-24.966 15.46-2.555 4.997-3.006 6.987-2.94 12.971.105 9.447 2.531 14.241 11.93 23.577 4.121 4.093 7.492 7.891 7.492 8.44 0 .549-2.699 3.722-5.998 7.05l-5.999 6.052 7.996 7.949 7.996 7.949 6.462-6.405 6.463-6.406 8.932 8.611C165.278 143.335 170.527 146 179 146c15.033 0 27.966-12.742 27.99-27.576.009-5.245.365-6.407 2.607-8.5 4.396-4.102 6.653-9.68 6.653-16.437 0-7.478-1.764-11.241-8.527-18.191l-5.063-5.203 4.136-4.488c2.275-2.468 4.441-5.7 4.813-7.183 1.923-7.664-4.392-15.081-11.992-14.085-2.796.366-5.047 1.65-8.038 4.586-2.285 2.242-4.606 4.077-5.159 4.077-.552 0-3.01-2.078-5.462-4.617s-6.258-5.454-8.458-6.478c-4.752-2.211-14.544-2.461-19.078-.487m6.37 31.832c-.874.688-1.898 2.285-2.274 3.55-.579 1.944.747 3.76 8.57 11.737 5.09 5.19 10.1 9.705 11.132 10.033 3.106.986 6.78-2.148 6.78-5.782 0-2.649-1.44-4.607-8.811-11.977-9.046-9.047-11.792-10.395-15.397-7.561m-91.313 38.491C56.347 116.083 49 126.088 49 138.267c0 4.139-.522 5.563-3.125 8.528-4.322 4.922-5.879 9.158-5.853 15.923.028 7.325 2.387 12.471 8.361 18.24 2.539 2.452 4.617 4.881 4.617 5.397 0 .515-2.079 3.16-4.62 5.877-4.405 4.709-4.596 5.156-4.099 9.571.67 5.942 4.969 10.197 10.301 10.197 4.398 0 6.869-1.233 11.675-5.828l3.756-3.591 5.244 5.103c7.02 6.832 10.878 8.663 18.243 8.659 6.639-.003 12.302-2.329 16.424-6.746 2.093-2.242 3.255-2.598 8.5-2.607 7.995-.013 14.828-3.197 20.369-9.492 6.825-7.754 8.712-17.035 5.604-27.566-1.493-5.061-3.253-7.095-25.75-29.767-16.429-16.557-25.664-25.112-28.893-26.765-6.482-3.318-14.822-3.969-21.275-1.659m.744 51.816C67.73 164.602 67 166.142 67 168.246c0 2.606 1.48 4.612 8.811 11.943C83.02 187.398 85.173 189 87.656 189c3.389 0 6.344-2.627 6.344-5.642C94 181.095 75.103 162 72.863 162c-.78 0-2.418.701-3.64 1.557"/><path fill="#1976D2" fill-opacity=".906" fill-rule="evenodd" d="M0 128.004v128.004l128.25-.254 128.25-.254.254-127.75L257.008 0H0v128.004m.485.496c0 70.4.119 99.053.265 63.672.146-35.38.146-92.98 0-128C.604 29.153.485 58.1.485 128.5m156.457-88.552c-3.94 1.196-7.182 3.054-10.144 5.815-2.155 2.009-3.875 2.564-8.506 2.745-16.797.656-29.363 14.556-28.042 31.015.661 8.24 4.068 14.362 12.831 23.058l6.919 6.865-6.232 6.288-6.231 6.287 8.23 8.231 8.231 8.23 6.194-6.194 6.194-6.194 8.057 7.727c9.858 9.452 13.785 11.47 23.359 11.999 6.616.366 7.906.106 13.753-2.772C201.607 138.099 208 127.906 208 116.827c0-2.808.913-5.006 3.472-8.359 4.206-5.51 5.931-11.381 5.189-17.664-.722-6.123-2.827-10.042-8.765-16.32l-4.854-5.133 3.598-3.425c5.041-4.8 6.769-9.158 5.342-13.479C210.303 47.358 205.746 44 200.52 44c-3.707 0-5.019.627-9.167 4.382l-4.84 4.382-5.779-5.35c-7.681-7.111-16.176-9.777-23.792-7.466m2.713 33.881c-3.308 3.656-2.107 6.262 7.115 15.442 9.196 9.153 12.262 10.555 15.659 7.158 3.188-3.189 1.869-5.768-7.794-15.245-9.642-9.455-12.022-10.624-14.98-7.355m-92.38 37.765c-10.336 3.807-18.316 15.16-18.767 26.698-.181 4.639-.734 6.347-2.753 8.506-9.228 9.867-8.59 22.866 1.666 33.943l5.388 5.82-4.405 4.661C44.67 195.175 44 196.508 44 199.991c0 5.549 2.186 9.395 6.503 11.443 4.951 2.35 8.826 1.273 14.488-4.022l4.657-4.357 3.926 4.055c10.804 11.158 23.778 12.848 34.689 4.519 3.497-2.669 5.563-3.426 10.597-3.883 7.506-.68 15.947-4.546 19.754-9.047 1.488-1.759 3.806-5.593 5.152-8.52 2.055-4.471 2.382-6.467 2.048-12.5-.231-4.179-1.185-8.85-2.283-11.179-2.715-5.759-46.227-49.472-52.812-53.056-6.321-3.441-16.869-4.273-23.444-1.85m1.38 53.235c-.91 1.006-1.655 2.641-1.655 3.634C67 171.094 84.868 189 87.493 189c3.26 0 5.757-2.356 5.757-5.433 0-2.156-1.977-4.762-8.854-11.672-9.405-9.448-12.378-10.783-15.741-7.066"/></svg>